<svg xmlns="http://www.w3.org/2000/svg" viewBox="0 0 401 401"><g fill="none" fill-rule="evenodd"><rect width="401" height="401" fill="#000000" rx="20"/><polygon fill="#FFFFFF" stroke="#000000" stroke-linejoin="round" stroke-width="10" points="275 243.551858 200.001 200.241 200.001 113.62 275 70.31 275 156.93 350 200.240929"/><polygon fill="#FFFFFF" stroke="#000000" stroke-linejoin="round" stroke-width="10" points="50 200.240929 125 156.93 125 70.31 200 113.62 199.999 200.241 125 243.551858"/><polygon fill="#FFFFFF" stroke="#000000" stroke-linejoin="round" stroke-width="10" points="199.999 286.861 125 330.171858 125.001 243.55 200 200.24 275 243.55 275 330.171858"/><polygon fill="#525252" stroke="#000000" stroke-linejoin="round" stroke-width="10" points="125 70.3109291 200 27 275 70.3109291 200 113.621858"/><polygon fill="#525252" stroke="#000000" stroke-linejoin="round" stroke-width="10" points="50.001 113.62 125 70.31 124.999 156.931 50 200.241858"/><polygon fill="#525252" stroke="#000000" stroke-linejoin="round" stroke-width="10" points="275 70.31 350 113.62 350 200.241858 275 156.931858"/><polygon fill="#525252" stroke="#000000" stroke-linejoin="round" stroke-width="10" points="275.001 243.55 350 200.24 349.999 286.861 275 330.171858"/><polygon fill="#525252" stroke="#000000" stroke-linejoin="round" stroke-width="10" points="125 330.170929 200 286.86 275 330.170929 200 373.481858"/><polygon fill="#525252" stroke="#000000" stroke-linejoin="round" stroke-width="10" points="50 286.861858 50 200.24 125 243.55 125 330.171858"/></g></svg>