<svg viewBox="0 0 401 401" xmlns="http://www.w3.org/2000/svg"><g fill="none" fill-rule="evenodd"><rect fill="#000" height="401" rx="20" width="401"/><g stroke="#000" stroke-linejoin="round" stroke-width="10"><path d="m275 243.551858-74.999-43.310858v-86.621l74.999-43.31v86.62l75 43.310929z" fill="#fff"/><path d="m50 200.240929 75-43.310929v-86.62l75 43.31-.001 86.621-74.999 43.310858z" fill="#fff"/><path d="m199.999 286.861-74.999 43.310858.001-86.621858 74.999-43.31 75 43.31v86.621858z" fill="#fff"/><path d="m125 70.3109291 75-43.3109291 75 43.3109291-75 43.3109289z" fill="#525252"/><path d="m50.001 113.62 74.999-43.31-.001 86.621-74.999 43.310858z" fill="#525252"/><path d="m275 70.31 75 43.31v86.621858l-75-43.31z" fill="#525252"/><path d="m275.001 243.55 74.999-43.31-.001 86.621-74.999 43.310858z" fill="#525252"/><path d="m125 330.170929 75-43.310929 75 43.310929-75 43.310929z" fill="#525252"/><path d="m50 286.861858v-86.621858l75 43.31v86.621858z" fill="#525252"/></g></g></svg>