<svg fill="none" xmlns="http://www.w3.org/2000/svg" viewBox="0 0 401 401">
  <g fill="#6aaf19">
    <path d="m205 203.129 70.017-40.424 65.006 37.523-67.515 38.979a5.004 5.004 0 0 0-2.5 4.33l-.007 77.949-65.009-37.525zM202.508 117.964l67.515-38.98-.007 75.06-70.017 40.423-70.007-40.409.007-75.062 67.51 38.968a4.999 4.999 0 0 0 4.999 0zM59.977 200.254l65.017-37.536 70.007 40.409-.008 80.833-65.016 37.538.007-77.947a5 5 0 0 0-2.5-4.331z"/>
    <g fill-opacity=".4">
      <path d="m280.015 154.044.007-75.061 65.009 37.524-.008 75.062zM135 70.337l65.017-37.536 65.006 37.523-65.016 37.536zM280 321.485l.006-75.06 65.017-37.537-.007 75.059zM134.977 330.158l65.017-37.536L265 330.145l-65.016 37.536zM54.97 283.974l.007-75.061 65.008 37.524-.007 75.062zM54.977 191.594l.007-75.06L120 78.997l-.007 75.06z"/>
    </g>
  </g>
</svg>