<svg fill="none" xmlns="http://www.w3.org/2000/svg" viewBox="0 0 336 336">
  <path d="m173.031 171.129 70.016-40.424 65.006 37.523-67.514 38.979a5 5 0 0 0-2.5 4.33l-.007 77.949-65.009-37.525.008-80.832ZM170.539 85.964l67.514-38.98-.006 75.06-70.017 40.423-70.007-40.409.007-75.062 67.51 38.968a4.999 4.999 0 0 0 4.999 0ZM28.008 168.254l65.017-37.536 70.006 40.409-.007 80.833-65.016 37.538.007-77.947a5 5 0 0 0-2.5-4.331l-67.507-38.966Z" fill="#6AAF19"/>
  <path d="m248.045 122.044.008-75.061 65.008 37.524-.007 75.062-65.009-37.525ZM103.031 38.337 168.047.801l65.006 37.523-65.015 37.536-65.007-37.523ZM248.031 289.485l.006-75.06 65.016-37.537-.006 75.059-65.016 37.538ZM103.008 298.158l65.017-37.536 65.006 37.523-65.016 37.536-65.007-37.523ZM23 251.974l.007-75.061 65.01 37.524-.008 75.062L23 251.974ZM23.008 159.594l.007-75.06L88.03 46.997l-.007 75.06-65.016 37.537Z" fill="#6AAF19" fill-opacity=".4"/>
</svg>