<svg fill="none" height="401" viewBox="0 0 401 401" width="401" xmlns="http://www.w3.org/2000/svg"><g fill="#6aaf19"><path d="m205 203.129 70.017-40.424 65.006 37.523-67.515 38.979c-1.546.893-2.499 2.544-2.5 4.33l-.007 77.949-65.009-37.525z"/><path d="m202.508 117.964 67.515-38.9798-.007 75.0598-70.017 40.423-70.007-40.409.007-75.0621 67.51 38.9681c1.547.893 3.452.893 4.999 0z"/><path d="m59.9775 200.254 65.0165-37.536 70.007 40.409-.008 80.833-65.016 37.538.007-77.947c0-1.787-.953-3.438-2.5-4.331z"/><g fill-opacity=".4"><path d="m280.015 154.044.007-75.0612 65.009 37.5242-.008 75.062z"/><path d="m135 70.3371 65.017-37.5363 65.006 37.5232-65.016 37.536z"/><path d="m280 321.485.006-75.06 65.017-37.537-.007 75.059z"/><path d="m134.977 330.158 65.017-37.536 65.006 37.523-65.016 37.536z"/><path d="m54.9692 283.974.0073-75.061 65.0085 37.524-.007 75.062z"/><path d="m54.9773 191.594.0065-75.06 65.0162-37.5367-.007 75.0597z"/></g></g></svg>